 http://www.imdb.com/title/tt1772250/


La cara oculta (2011)
R  Thriller   -  16 September 2011 (Spain)
6.5
Your rating:
    -/10  
Ratings: 6.5/10 from 241 users  
Reviews: write review | 6 critic

A Spanish orchestra conductor deals with the mysterious disappearance of his girlfriend.

Director:
Andrés Baiz
Writers:
Stewart St. John (english adaptation), Andrés Baiz (screenplay), and 1 more credit »
Stars:
Martina García, Quim Gutiérrez and Clara Lago 


Format                                   : AVI
Format/Info                              : Audio Video Interleave
File size                                : 974 MiB
Duration                                 : 1h 32mn
Overall bit rate                         : 1 480 Kbps
Writing application                      : VirtualDubMod 1.5.4.1 (build 2178/release)
Writing library                          : VirtualDubMod build 2178/release

Video
ID                                       : 0
Format                                   : MPEG-4 Visual
Format profile                           : Advanced Simple@L5
Format settings, BVOP                    : 1
Format settings, QPel                    : No
Format settings, GMC                     : No warppoints
Format settings, Matrix                  : Custom
Codec ID                                 : XVID
Codec ID/Hint                            : XviD
Duration                                 : 1h 32mn
Bit rate                                 : 1 025 Kbps
Width                                    : 720 pixels
Height                                   : 304 pixels
Display aspect ratio                     : 2.35:1
Frame rate                               : 25.000 fps
Color space                              : YUV
Chroma subsampling                       : 4:2:0
Bit depth                                : 8 bits
Scan type                                : Progressive
Compression mode                         : Lossy
Bits/(Pixel*Frame)                       : 0.187
Stream size                              : 675 MiB (69%)
Writing library                          : XviD 64

Audio
ID                                       : 1
Format                                   : AC-3
Format/Info                              : Audio Coding 3
Mode extension                           : CM (complete main)
Codec ID                                 : 2000
Duration                                 : 1h 32mn
Bit rate mode                            : Constant
Bit rate                                 : 448 Kbps
Channel(s)                               : 6 channels
Channel positions                        : Front: L C R, Side: L R, LFE
Sampling rate                            : 48.0 KHz
Bit depth                                : 16 bits
Compression mode                         : Lossy
Stream size                              : 295 MiB (30%)
Alignment                                : Split accross interleaves
Interleave, duration                     : 96 ms (2.40 video frames)
Interleave, preload duration             : 96 ms
Language                                 : Spanish
